<?xml version="1.0"?>
<svg version="1.1" xmlns="http://www.w3.org/2000/svg" width="172px" height="85px"><path fill="#" d="M1.8,64.82l13.68,13.68l2.7-2.7l-11.04-10.98l11.22-11.22l-2.7-2.64z M36.8304,40.88l22.62,0l0-4.56l-22.62,0q-4.44,0-7.44,3.48q-3.06,3.54-3.06,8.58q0,4.56,3.06,7.92q3,3.42,7.44,3.42l6,0l6.12,0q2.7,0,4.8,2.28q1.98,2.4,1.98,5.22q0,3.36-1.95,5.46t-4.83,2.1l-22.62,0l0,3.72l22.62,0q4.5,0,7.5-3.12t3-8.16q0-4.56-3-7.92q-3.06-3.36-7.5-3.36l-6.12,0l-6,0q-2.76,0-4.74-2.4q-2.04-2.22-2.04-5.16q0-3.36,1.95-5.43t4.83-2.07z M77.8608,40.88l22.62,0l0-4.56l-22.62,0q-4.44,0-7.44,3.48q-3.06,3.54-3.06,8.58q0,4.56,3.06,7.92q3,3.42,7.44,3.42l6,0l6.12,0q2.7,0,4.8,2.28q1.98,2.4,1.98,5.22q0,3.36-1.95,5.46t-4.83,2.1l-22.62,0l0,3.72l22.62,0q4.5,0,7.5-3.12t3-8.16q0-4.56-3-7.92q-3.06-3.36-7.5-3.36l-6.12,0l-6,0q-2.76,0-4.74-2.4q-2.04-2.22-2.04-5.16q0-3.36,1.95-5.43t4.83-2.07z M125.6112,36.26q-6.72,0-11.28,4.86q-4.5,4.8-4.5,11.7l0,25.68l3.78,0l0-18.84l24.12,0l0,18.84l3.78,0l0-25.68q0-6.9-4.5-11.7q-4.68-4.86-11.4-4.86z M137.7312,55.94l-24.12,0l0-3.12q0-5.16,3.48-8.94q3.54-3.84,8.52-3.84t8.64,3.84q3.48,3.78,3.48,8.94l0,3.12z M167.4816,64.64l-13.68-13.68l-2.7,2.64l11.04,11.04l-11.22,11.16l2.7,2.7z"/><path fill="#" d=""/></svg>
